<svg xmlns="http://www.w3.org/2000/svg" viewBox="0 0 158.68 193.4"><defs><style>.cls-1{fill:#333;}.cls-2{fill:#f5e063;}</style></defs><g id="Layer_2" data-name="Layer 2"><g id="Popup"><path class="cls-1" d="M61.21,133.24a24.38,24.38,0,0,1-4.17.1,7.78,7.78,0,0,1-6.52-7.12c-.07-1,0-1.93,0-2.9q0-13.75,0-27.5c0-10.11,7.45-18.2,17.58-18.61,7.5-.3,15-.3,22.53,0,10.17.4,17.62,8.51,17.62,18.68q0,14.61,0,29.22c0,4.23-2.54,7.55-6.42,8.21a27,27,0,0,1-4.32,0v55.09h42.71a6,6,0,0,1,1.28.09,2.49,2.49,0,0,1-.32,4.85,7.69,7.69,0,0,1-1,0H18.44c-.21,0-.43,0-.64,0a2.47,2.47,0,0,1,0-4.94c1,0,2.08,0,3.12,0H61.21ZM92.4,126.4V113.23c0-4.12,0-8.23,0-12.35a2.41,2.41,0,0,1,2.35-2.44,2.49,2.49,0,0,1,2.6,2.33c0,.35,0,.71,0,1.07q0,11.76,0,23.52a2.93,2.93,0,0,0,3,3.13,3,3,0,0,0,2.89-3.11c0-.82,0-1.65,0-2.47,0-9.16,0-18.33,0-27.5A13.24,13.24,0,0,0,91.5,82.3a130.42,130.42,0,0,0-23.38-.12c-7.7.6-12.66,6.27-12.66,14v28.57a7.71,7.71,0,0,0,0,1.18,3,3,0,0,0,2.75,2.56,2.92,2.92,0,0,0,3-2.29,6.11,6.11,0,0,0,.07-1.28q0-11.61,0-23.2a7.67,7.67,0,0,1,0-1.18,2.49,2.49,0,0,1,2.26-2.1,2.44,2.44,0,0,1,2.52,1.62,5.17,5.17,0,0,1,.14,1.48q0,11.76,0,23.52v1.34Zm-26.06,5.13v56.85H73v-1.53q0-21.43,0-42.86a13.78,13.78,0,0,1,.09-1.82,6.4,6.4,0,0,1,4.7-5.3c4.22-1,7.89,2.06,7.88,6.65v44.83h6.66V131.53ZM80.61,188.4c0-.26.06-.4.06-.54q0-22.28,0-44.54c0-.92-.34-1.55-1.3-1.65-.76-.07-1.31.61-1.37,1.6,0,.18,0,.36,0,.54q0,21.72,0,43.46c0,.38,0,.75,0,1.13Z"/><path class="cls-1" d="M17.8,96H3.3C.83,96,0,95.21,0,92.76V65.9c0-2.44.77-3.2,3.21-3.2,4.55,0,9.1,0,13.65,0,.56,0,1,0,1.19-.72a61.57,61.57,0,0,1,5.82-14,2.22,2.22,0,0,0,.13-.41l-8-8c-.89-.89-1.79-1.76-2.66-2.67a2.44,2.44,0,0,1,0-3.72q9.9-9.93,19.82-19.83a2.45,2.45,0,0,1,3.79,0q4.92,4.89,9.8,9.8c.28.28.52.6.8.92.89-.47,1.64-1,2.45-1.29,3.84-1.56,7.67-3.13,11.54-4.6.83-.31,1.17-.6,1.16-1.53-.05-4.44,0-8.88,0-13.32C62.65.81,63.46,0,66,0H93C95.12,0,96,.87,96,3.06q0,6.87,0,13.75a1.13,1.13,0,0,0,1,1.32,62.29,62.29,0,0,1,14.17,6c.72-.79,1.42-1.6,2.18-2.37q4.15-4.19,8.35-8.35a2.52,2.52,0,0,1,3.88,0q9.85,9.83,19.68,19.68a2.49,2.49,0,0,1,0,4q-4.65,4.7-9.35,9.35c-.4.4-.85.76-1.3,1.15.66,1.27,1.36,2.36,1.83,3.55q2.15,5.31,4.13,10.69c.26.73.55,1,1.33,1,4.62,0,9.24,0,13.86,0,2.07,0,2.93.86,2.93,3q0,13.69,0,27.39c0,2.08-.93,3-3.05,3H141.22L135,111.11l-.55.17a4.73,4.73,0,0,1,1,.63q4.85,4.8,9.66,9.64c1.5,1.49,1.5,2.74,0,4.25q-9.67,9.69-19.37,19.37c-1.39,1.4-2.71,1.41-4.11,0q-4.47-4.42-8.89-8.89a2.51,2.51,0,1,1,3.52-3.53c2.19,2.16,4.36,4.35,6.54,6.53.27.27.56.53.8.77l16.66-16.66a5.19,5.19,0,0,1-.93-.62q-4.65-4.62-9.27-9.26c-1.27-1.27-1.39-2.24-.49-3.74a58,58,0,0,0,6.8-16.39c.45-1.81,1.17-2.36,3-2.36h14.24V67.68H139.48c-1.91,0-2.68-.58-3.13-2.41A58,58,0,0,0,129.61,49c-1-1.58-.84-2.53.45-3.82l9.95-10c-5.5-5.48-11-10.94-16.51-16.48-.11.1-.39.35-.66.61l-9,9c-1.63,1.63-2.38,1.73-4.32.57a58.14,58.14,0,0,0-16-6.6C91.58,21.87,91,21.12,91,19.14V5H67.73c0,.4-.06.78-.06,1.16q0,6.56,0,13.11c0,1.83-.6,2.58-2.39,3A58,58,0,0,0,49.07,29c-1.75,1-2.6.94-4.07-.53q-4.57-4.56-9.11-9.13a5,5,0,0,1-.61-.87L18.65,35.14l2.42,2.43c2.55,2.56,5.12,5.11,7.66,7.68a2.49,2.49,0,0,1,.48,3.48,59.41,59.41,0,0,0-7,16.79,2.49,2.49,0,0,1-2.77,2.15H5V91h14.3c1.8,0,2.53.56,3,2.31a59.11,59.11,0,0,0,6.9,16.58,2.5,2.5,0,0,1-.45,3.48q-4.69,4.73-9.42,9.42a6.46,6.46,0,0,1-.81.6l16.84,16.8a3.32,3.32,0,0,1,.51-.88c2.18-2.23,4.39-4.43,6.61-6.63a2.51,2.51,0,0,1,3.64-.16,2.46,2.46,0,0,1-.07,3.63q-4.56,4.63-9.19,9.19a2.44,2.44,0,0,1-3.72,0q-9.9-9.85-19.75-19.75a2.46,2.46,0,0,1,0-3.87q5-5,10-9.94a1.11,1.11,0,0,0,.24-1.62,60.75,60.75,0,0,1-5.5-13.26C18,96.64,17.91,96.38,17.8,96Z"/><path class="cls-1" d="M79.38,28.37a51.1,51.1,0,0,1,49.83,42c2.64,14.82-.78,28.27-10,40.22a4.31,4.31,0,0,1-1.72,1.36,2.32,2.32,0,0,1-2.72-1,2.55,2.55,0,0,1,.17-3,85.62,85.62,0,0,0,5.05-7.84c13.8-26.62-2-59.53-31.44-65.51a45.69,45.69,0,0,0-54.3,37c-2.24,13.25.87,25.28,9,36a4.23,4.23,0,0,1,.88,2.2,2.12,2.12,0,0,1-1.63,2.15A2.33,2.33,0,0,1,39.8,111a88.15,88.15,0,0,1-4.94-7.4C18.41,73.83,36,36.2,69.39,29.65,72.67,29,76,28.79,79.38,28.37Z"/><path class="cls-1" d="M65.32,59.17a14,14,0,1,1,14,14.12A14,14,0,0,1,65.32,59.17Zm14.06-9a9.05,9.05,0,1,0,9,9.13A9,9,0,0,0,79.38,50.21Z"/><path class="cls-2" d="M92.4,126.4H66.28v-1.34q0-11.76,0-23.52a5.17,5.17,0,0,0-.14-1.48,2.44,2.44,0,0,0-2.52-1.62,2.49,2.49,0,0,0-2.26,2.1,7.67,7.67,0,0,0,0,1.18q0,11.6,0,23.2a6.11,6.11,0,0,1-.07,1.28,2.92,2.92,0,0,1-3,2.29,3,3,0,0,1-2.75-2.56,7.71,7.71,0,0,1,0-1.18V96.18c0-7.73,5-13.4,12.66-14a130.42,130.42,0,0,1,23.38.12,13.24,13.24,0,0,1,11.71,13.11c0,9.17,0,18.34,0,27.5,0,.82,0,1.65,0,2.47a3,3,0,0,1-2.89,3.11,2.93,2.93,0,0,1-3-3.13q0-11.76,0-23.52c0-.36,0-.72,0-1.07a2.49,2.49,0,0,0-2.6-2.33,2.41,2.41,0,0,0-2.35,2.44c0,4.12,0,8.23,0,12.35V126.4Z"/><path class="cls-2" d="M66.34,131.53h26v56.82H85.68V143.52c0-4.59-3.66-7.69-7.88-6.65a6.4,6.4,0,0,0-4.7,5.3A13.78,13.78,0,0,0,73,144q0,21.42,0,42.86v1.53H66.34Z"/><path class="cls-2" d="M79.38,50.21a9.05,9.05,0,1,1-9.08,8.95A9,9,0,0,1,79.38,50.21Z"/></g></g></svg>