<svg xmlns="http://www.w3.org/2000/svg" viewBox="0 0 164.06 145.41"><defs><style>.cls-1{fill:none;}.cls-1,.cls-2{stroke:#333;stroke-linecap:round;stroke-linejoin:round;stroke-width:5px;}.cls-2{fill:#f5e063;}.cls-3{fill:#333;}</style></defs><g id="Layer_2" data-name="Layer 2"><g id="Popup"><path class="cls-1" d="M82.12,142.77H12.37c-8.74,0-12.4-6.39-8-14L74.1,8.09c4.31-7.44,11.7-7.45,16,0,23.24,40.23,46.36,80.54,69.85,120.63,4.38,7.48-.69,14.35-8.08,14.22C128.61,142.52,105.36,142.77,82.12,142.77Z"/><path class="cls-2" d="M82.21,127.25q-23.31,0-46.62,0c-5.85,0-8.29-4.27-5.36-9.35Q53.54,77.57,76.86,37.22c2.87-5,7.81-5,10.68,0,15.54,26.9,31,53.84,46.69,80.64,2.94,5-.45,9.59-5.4,9.51C113.3,127.09,97.75,127.25,82.21,127.25Z"/><path class="cls-3" d="M85.82,69.31c-.64,6.09-1.31,12.39-2,18.68q-.5,4.73-1,9.45c-.18,1.59-.92,2.38-2.19,2.36-1.52,0-2.09-1-2.23-2.35q-1-9.61-1.94-19.21c-.3-3-.65-6-.88-9A5.06,5.06,0,0,1,78.78,64C82.33,62.57,86,65.21,85.82,69.31Z"/><path class="cls-3" d="M85.23,107.88a4.72,4.72,0,1,1-4.84-4.71A4.72,4.72,0,0,1,85.23,107.88Z"/></g></g></svg>