<svg xmlns="http://www.w3.org/2000/svg" viewBox="0 0 123.37 62.95"><defs><style>.cls-1{fill:#333;}</style></defs><g id="Layer_2" data-name="Layer 2"><g id="Popup"><path class="cls-1" d="M94.81,29.51c-1.21.72-2.11,1.22-3,1.81a1.57,1.57,0,0,0-.41,1c-.51,3.57-1.31,7-3.58,10-3.22,4.17-8.93,3.73-11.24-1a21,21,0,0,1-1.52-5.51,24.51,24.51,0,0,1,0-4.11c-2-.13-2.11-.06-2.37,1.73a22.08,22.08,0,0,1-2.91,8.93,7.77,7.77,0,0,1-5.39,3.81c-3.36.53-6.12-1-7.62-4.47-.65-1.49-1.05-3.1-1.61-4.83L54.1,38.77a25.81,25.81,0,0,1-5.6,7.28c-2.69,2.28-5.63,2.87-8.87,1.22a5.66,5.66,0,0,0-.62-.18,45.72,45.72,0,0,0,1.53,13.16,5.84,5.84,0,0,1-5.56,1,3.34,3.34,0,0,1-1.87-2.11,36.58,36.58,0,0,1-.65-7.3c.14-5.65.51-11.3.78-17,0-.56-.05-1.12-.08-1.84l-6.51,3.65.76,1.2c3.09,4.61,3.09,9.49,1.06,14.43a16.46,16.46,0,0,1-10.19,9.89,13.11,13.11,0,0,1-7.62.35C6.21,61.39,3.7,56.82,4.8,52a15.77,15.77,0,0,1,5.3-8.21c2.12-1.88,4.43-3.54,6.77-5.39-1.7-1.11-3.43-2.22-5.14-3.37-3-2-6-4-8.26-6.79a15.5,15.5,0,0,1,.12-19.7C8.41,2.69,14.85.32,22.2,0A21,21,0,0,1,35,3.31c7.16,4.75,6.13,13.07.44,17.65a13.9,13.9,0,0,1-9.53,3.18C23,24,21.17,22,21.52,19.33c.1-.79.37-1.13,1.24-1.08a12.06,12.06,0,0,0,5.94-1.14c2.15-1,3.66-2.55,3.86-5a5.9,5.9,0,0,0-3.05-5.91,13.79,13.79,0,0,0-9.94-1.43C15.05,5.54,11.31,7.63,9,11.77a9.71,9.71,0,0,0,2,12.41c2.87,2.47,6.09,4.54,9.14,6.81,1.24.91,2.43,1.89,3.68,2.79a1.26,1.26,0,0,0,1.07.2c2.28-1.34,4.56-2.7,6.77-4.16a4.57,4.57,0,0,0,2.09-3.45,1.19,1.19,0,0,1,.62-.8c2.24-.93,4.1.15,4.47,2.56.06.33.11.66.21,1.26a13.24,13.24,0,0,1,1.26-2,18.9,18.9,0,0,1,3.49-3.27c2.29-1.4,4.69-.75,6.29,1.44a13.9,13.9,0,0,1,2.37,8.06c0,.87,0,1.75,0,2.62l.34.11c.72-1.75,1.48-3.47,2.16-5.23.83-2.15,1.46-4.39,2.42-6.47a7.71,7.71,0,0,1,4.49-4.1,5.88,5.88,0,0,1,3.84-.13,1.42,1.42,0,0,0,1.16-.26c1.26-1.1,2.64-1.14,3.55.26a17,17,0,0,1,1.84,4.18,16.43,16.43,0,0,1,.56,3.64c.06.76.34.91,1,.75a3.29,3.29,0,0,0,2.44-2.06,11.35,11.35,0,0,1,4.51-5.83A5.31,5.31,0,0,1,88,22.32c.22.26.47.63.74.66,1.85.21,2.18,1.62,2.48,3,.16.77.23,1.57.36,2.57a6,6,0,0,0,3.1-3.08,3,3,0,0,1,3.12-2,2.48,2.48,0,0,1,2.43,2.08c.26,1.07.35,2.19.53,3.43.61-.73,1.12-1.44,1.73-2.05A14.83,14.83,0,0,1,105,24.83c3-1.86,6.44-.56,7.19,2.91a16.64,16.64,0,0,1,.1,5.59c-.57,4.31-1.54,8.56-2,12.88a24.24,24.24,0,0,0,.39,6.4,3.7,3.7,0,0,0,3.46,3.33c1.64.06,3-1,3.69-2.95,1-2.89,0-5.33-2-7.36-.89-.89-.9-1.56-.2-2.42A9.21,9.21,0,0,1,117,41.66a3,3,0,0,1,4.48.5c2.51,3.07,2.6,8.83.21,12.66a9.46,9.46,0,0,1-10.54,4.12c-3.65-.92-5.35-3.66-6.23-7a25.45,25.45,0,0,1-.21-9.41c.39-3.28.81-6.57,1.19-9.85a8,8,0,0,0,.08-2.18c-.08-.55-.37-1.33-.77-1.49a2.07,2.07,0,0,0-1.6.54,8.73,8.73,0,0,0-2.68,4.62,30.52,30.52,0,0,0-.49,10.9c.08.76-.08,1.21-.78,1.39A12.33,12.33,0,0,1,96.7,47a2.7,2.7,0,0,1-2.92-3c0-2.38.2-4.76.37-7.14S94.57,32.13,94.81,29.51ZM22.68,47a9.07,9.07,0,0,0-2.13-5.39c-.45-.56-.92-.78-1.54-.26-2.3,1.9-4.7,3.7-6.87,5.74a9.41,9.41,0,0,0-2.86,5.66c-.33,2.46,1.06,4.77,3.17,5a8.49,8.49,0,0,0,3.29-.25C19.63,56.34,22.62,52,22.68,47Zm43-23-.34-.25c-.57.49-1.32.88-1.66,1.49a13.11,13.11,0,0,0-1.32,3.41A16.09,16.09,0,0,0,63,38.78c.47,1.09,1.16,2.06,2.51,2.07a3.13,3.13,0,0,0,2.76-2A15.06,15.06,0,0,0,70,32.47a1.56,1.56,0,0,0-.62-1.16,7.58,7.58,0,0,1-3.56-6.13C65.75,24.78,65.69,24.37,65.64,24ZM39.2,41.44l.17,0a10.66,10.66,0,0,1-.1,1.49c-.21,1,.33,1.4,1.19,1.57A3,3,0,0,0,44,43.16a15,15,0,0,0,1.63-4.25,16.4,16.4,0,0,0-.38-8.08A3.22,3.22,0,0,0,43.7,28.9c-1-.38-1.67.55-2.15,1.36a6.2,6.2,0,0,0-.85,2C40.15,35.31,39.69,38.37,39.2,41.44ZM85,23.92c-.32.3-1.08.73-1.4,1.37a15.51,15.51,0,0,0-.93,12.28,2.57,2.57,0,0,0,2.21,1.94,2.3,2.3,0,0,0,2.41-1.62c.62-1.64,1-3.36,1.48-5,.2-.69,0-1.11-.68-1.59a3.65,3.65,0,0,1-1.43-2.09,15,15,0,0,1,0-3.85C86.68,24.38,86.35,23.88,85,23.92Z"/><path class="cls-1" d="M47.85,60.6a2.85,2.85,0,0,1,.3-3.14,14.85,14.85,0,0,1,5.79-3.87,50.88,50.88,0,0,1,15-3.77,52.06,52.06,0,0,1,21.46,1.93,26.7,26.7,0,0,1,5.75,2.83A3.06,3.06,0,0,1,97.62,58a3.62,3.62,0,0,1-2.88,2.69,1.48,1.48,0,0,1-1.08-.11c-4.61-3.33-9.91-4.75-15.44-5.28a57.26,57.26,0,0,0-26.64,3.55C50.34,59.33,49.16,60,47.85,60.6Z"/><path class="cls-1" d="M46.6,3.87h6.25v2H48.78V7.49h3.79v2H48.78V13H46.6Z"/><path class="cls-1" d="M56.73,3.87h2.18V13H56.73Z"/><path class="cls-1" d="M63.38,3.87H65.9l3,5.72h0V3.87h2.11V13H68.65L65.51,7.23h0V13H63.38Z"/><path class="cls-1" d="M75.51,3.87H77.7v7h4V13H75.51Z"/><path class="cls-1" d="M87.54,3.87h2.67L93,13H90.69l-.39-1.48H87.43L87,13H84.69Zm1.33,2.3h0l-.91,3.45h1.84Z"/><path class="cls-1" d="M96.56,3.87h2.51l3,5.72h0V3.87h2.11V13h-2.41L98.69,7.23h0V13H96.56Z"/><path class="cls-1" d="M108.69,3.87h4.74c2,0,3.12,1.49,3.12,4.56C116.55,12,115,13,113.14,13h-4.45ZM110.87,11h1.83c1.25,0,1.59-1.27,1.59-2.54,0-1.7-.59-2.51-1.76-2.51h-1.66Z"/></g></g></svg>