<svg xmlns="http://www.w3.org/2000/svg" viewBox="0 0 165.39 175.64"><defs><style>.cls-1{fill:none;}.cls-1,.cls-2{stroke:#333;stroke-linecap:round;stroke-linejoin:round;stroke-width:5px;}.cls-2,.cls-4{fill:#f5e063;}.cls-3{fill:#fff;}.cls-5{fill:#333;}</style></defs><g id="Layer_2" data-name="Layer 2"><g id="Popup"><path class="cls-1" d="M142.91,72.7A70.21,70.21,0,0,0,2.5,72.7V173.14H85V153.67h41s14.86-1,14.86-19.47V108.58h22Z"/><circle class="cls-2" cx="73.73" cy="69.63" r="53.81" transform="translate(-10.98 125.39) rotate(-76.72)"/><polyline class="cls-1" points="38.29 49.47 53.1 37.84 63.94 48.94 90.37 28.59"/><polyline class="cls-1" points="78.21 26.21 90.63 28.59 91.95 40.74"/><line class="cls-1" x1="114.39" y1="80.4" x2="114.39" y2="55.55"/><line class="cls-1" x1="104.34" y1="80.4" x2="104.34" y2="62.16"/><path class="cls-3" d="M42,72c1,1.34,1.87,2.64,2.8,3.93A2.24,2.24,0,0,1,45.17,78a22.59,22.59,0,0,0-.59,2.56,2.28,2.28,0,0,1-1.24,1.75c-1.26.67-2.49,1.38-3.75,2.05a.56.56,0,0,0-.36.76c.38,1.5.72,3,1,4.53.08.43.25.61.7.62,1.46,0,2.92.15,4.38.22a2.06,2.06,0,0,1,1.62.88c.6.78,1.22,1.55,1.84,2.31a2.14,2.14,0,0,1,.5,1.83c-.27,1.47-.51,3-.78,4.42a.44.44,0,0,0,.31.58c1.47.69,2.93,1.39,4.38,2.12.36.18.53.1.77-.18.95-1.1,1.94-2.19,2.9-3.28a2.15,2.15,0,0,1,1.79-.77c.91,0,1.83,0,2.74,0a2.31,2.31,0,0,1,2,.84c1,1.1,1.94,2.18,2.9,3.29a.44.44,0,0,0,.64.13q2.19-1.08,4.39-2.11c.31-.15.43-.3.36-.66-.28-1.46-.5-2.92-.77-4.37a2.18,2.18,0,0,1,.55-1.92c.6-.71,1.19-1.43,1.74-2.18a2.15,2.15,0,0,1,1.71-.93c1.46-.07,2.92-.17,4.38-.23a.57.57,0,0,0,.64-.55c.33-1.55.68-3.1,1.06-4.64a.52.52,0,0,0-.31-.69c-1.28-.67-2.53-1.38-3.8-2.06a2.22,2.22,0,0,1-1.24-1.75,15.17,15.17,0,0,0-.55-2.4,2.42,2.42,0,0,1,.4-2.36c.92-1.25,1.8-2.52,2.71-3.8-1.15-1.44-2.27-2.85-3.41-4.25a.6.6,0,0,0-.56-.06c-1.35.54-2.7,1.1-4,1.67a2.29,2.29,0,0,1-2.14-.12,25.71,25.71,0,0,0-2.37-1.13,2.28,2.28,0,0,1-1.44-1.59c-.36-1.34-.77-2.66-1.13-4-.09-.35-.23-.47-.59-.47q-2.41,0-4.83,0a.52.52,0,0,0-.59.46c-.37,1.36-.78,2.7-1.15,4.06a2.15,2.15,0,0,1-1.33,1.48,21.47,21.47,0,0,0-2.32,1.11,2.52,2.52,0,0,1-2.49.13c-1.27-.57-2.56-1.08-3.84-1.62-.23-.1-.41-.15-.61.1C44.27,69.2,43.15,70.59,42,72Z"/><circle class="cls-4" cx="60.57" cy="82.59" r="6.1"/><line class="cls-1" x1="94.3" y1="80.4" x2="94.3" y2="67.18"/><path class="cls-5" d="M45.27,63.18a6.31,6.31,0,0,1,.83.25q2.24.92,4.44,1.87a1.14,1.14,0,0,0,.87,0,2,2,0,0,0,1.42-1.71c.28-1.26.69-2.5,1-3.74a2,2,0,0,1,2.2-1.67H64.4a2,2,0,0,1,2.19,1.66c.43,1.49.86,3,1.27,4.47a1.07,1.07,0,0,0,.55.68,2.05,2.05,0,0,0,2.22.06c1.19-.59,2.45-1,3.68-1.57a2.07,2.07,0,0,1,2.8.7l5,6.34a2.1,2.1,0,0,1,.07,3c-.87,1.22-1.72,2.45-2.62,3.65a1.45,1.45,0,0,0-.23,1.16,1.74,1.74,0,0,0,1.11,1.44c1.28.64,2.51,1.35,3.76,2a2,2,0,0,1,1.14,2.56q-.92,4-1.82,8a2.09,2.09,0,0,1-2.21,1.86q-2.35.1-4.71.24a1.76,1.76,0,0,0-1.43,1.81c.28,1.64.57,3.27.83,4.91A1.9,1.9,0,0,1,75,103.33c-2.63,1.3-5.28,2.57-7.93,3.83a1.91,1.91,0,0,1-2.38-.53c-1.11-1.24-2.22-2.48-3.31-3.73a1.08,1.08,0,0,0-.79-.37,2,2,0,0,0-1.9.84c-.87,1.09-1.82,2.1-2.75,3.13a2,2,0,0,1-2.74.55l-7.49-3.61a2,2,0,0,1-1.25-2.35c.26-1.62.54-3.24.83-4.86a1.06,1.06,0,0,0-.2-.84,2,2,0,0,0-2-1c-1.42,0-2.85-.12-4.27-.2A1.93,1.93,0,0,1,37,92.74c-.68-2.88-1.35-5.76-2-8.65a1.93,1.93,0,0,1,1.1-2.23l4.32-2.37a1.8,1.8,0,0,0,.49-2.19l-2.76-3.88a2,2,0,0,1,0-2.84l5.16-6.47A2.23,2.23,0,0,1,45.27,63.18Zm-3.14,8.91c1,1.34,1.87,2.64,2.81,3.93a2.23,2.23,0,0,1,.35,2.06,22.59,22.59,0,0,0-.59,2.56,2.24,2.24,0,0,1-1.24,1.75c-1.25.67-2.49,1.38-3.74,2a.56.56,0,0,0-.36.76c.37,1.5.71,3,1,4.53.09.43.25.61.71.62,1.46.05,2.91.15,4.37.22a2.09,2.09,0,0,1,1.63.88c.6.78,1.21,1.55,1.84,2.31a2.13,2.13,0,0,1,.49,1.83c-.27,1.48-.51,3-.78,4.43-.06.31,0,.44.31.57,1.47.69,2.94,1.39,4.38,2.12.37.19.53.1.77-.18,1-1.1,1.94-2.18,2.91-3.28a2.14,2.14,0,0,1,1.79-.77c.91,0,1.82,0,2.73,0a2.33,2.33,0,0,1,2,.84c1,1.1,1.95,2.18,2.9,3.29a.45.45,0,0,0,.65.13c1.45-.72,2.92-1.42,4.38-2.11.32-.15.43-.29.36-.66-.27-1.45-.49-2.92-.77-4.37a2.19,2.19,0,0,1,.56-1.92c.6-.71,1.18-1.43,1.74-2.18a2.12,2.12,0,0,1,1.7-.93c1.46-.07,2.92-.17,4.38-.23.4,0,.56-.16.65-.55.33-1.55.68-3.1,1.05-4.64a.51.51,0,0,0-.31-.69c-1.27-.67-2.53-1.38-3.8-2.06a2.26,2.26,0,0,1-1.24-1.75,16.34,16.34,0,0,0-.54-2.4,2.4,2.4,0,0,1,.39-2.36c.92-1.24,1.8-2.52,2.71-3.79-1.14-1.44-2.26-2.86-3.41-4.26a.65.65,0,0,0-.55-.06c-1.36.54-2.7,1.1-4,1.68a2.31,2.31,0,0,1-2.15-.13,25.54,25.54,0,0,0-2.36-1.13,2.27,2.27,0,0,1-1.45-1.59c-.36-1.34-.77-2.66-1.13-4-.09-.35-.23-.47-.59-.47-1.61,0-3.22,0-4.82,0a.52.52,0,0,0-.6.46c-.36,1.36-.77,2.7-1.15,4.06a2.18,2.18,0,0,1-1.33,1.49,19.54,19.54,0,0,0-2.31,1.1,2.54,2.54,0,0,1-2.5.13c-1.26-.57-2.56-1.07-3.83-1.62-.24-.1-.41-.15-.61.11C44.39,69.27,43.27,70.67,42.13,72.09Z"/><path class="cls-5" d="M60.22,92a9.1,9.1,0,1,1,9.11-9A9.11,9.11,0,0,1,60.22,92Zm0-4a5.1,5.1,0,1,0-5.07-5.11A5.12,5.12,0,0,0,60.2,88Z"/></g></g></svg>